<svg xmlns="http://www.w3.org/2000/svg" viewBox="0 0 1400 800" width="1400" height="800">
  <defs>
    <linearGradient id="inst-bg" x1="0" y1="0" x2="0" y2="1">
      <stop offset="0%" stop-color="#f8faff"/>
      <stop offset="100%" stop-color="#f0f4ff"/>
    </linearGradient>
  </defs>
  <!-- Window chrome -->
  <rect width="1400" height="800" rx="12" fill="#1a1a2e"/>
  <rect x="0" y="0" width="1400" height="40" rx="12" fill="#2d2d44"/>
  <rect x="0" y="28" width="1400" height="12" fill="#2d2d44"/>
  <circle cx="20" cy="20" r="6" fill="#ff5f57"/>
  <circle cx="40" cy="20" r="6" fill="#ffbd2e"/>
  <circle cx="60" cy="20" r="6" fill="#28c840"/>
  <text x="700" y="25" text-anchor="middle" fill="#8888aa" font-family="system-ui" font-size="13">Instantly.ai - Campaign Dashboard</text>

  <!-- Sidebar -->
  <rect x="0" y="40" width="220" height="760" fill="#0f0f24"/>
  <rect x="20" y="60" width="180" height="36" rx="6" fill="#4580f7" opacity="0.15"/>
  <text x="50" y="83" fill="#4580f7" font-family="system-ui" font-weight="600" font-size="14">Campaigns</text>
  <circle cx="35" cy="78" r="8" fill="none" stroke="#4580f7" stroke-width="1.5"/>
  <text x="50" y="123" fill="#7777aa" font-family="system-ui" font-size="13">Lead Database</text>
  <text x="50" y="158" fill="#7777aa" font-family="system-ui" font-size="13">Inbox</text>
  <text x="50" y="193" fill="#7777aa" font-family="system-ui" font-size="13">Email Accounts</text>
  <text x="50" y="228" fill="#7777aa" font-family="system-ui" font-size="13">Deliverability</text>
  <text x="50" y="263" fill="#7777aa" font-family="system-ui" font-size="13">Verification</text>
  <text x="50" y="298" fill="#7777aa" font-family="system-ui" font-size="13">CRM</text>
  <text x="50" y="333" fill="#7777aa" font-family="system-ui" font-size="13">AI Agent</text>
  <text x="50" y="368" fill="#7777aa" font-family="system-ui" font-size="13">Automations</text>
  <text x="50" y="403" fill="#7777aa" font-family="system-ui" font-size="13">Analytics</text>
  <!-- Logo -->
  <text x="40" y="750" fill="#4580f7" font-family="system-ui" font-weight="700" font-size="18">instantly</text>

  <!-- Main content area -->
  <rect x="220" y="40" width="1180" height="760" fill="url(#inst-bg)"/>

  <!-- Header bar -->
  <text x="260" y="85" fill="#1a1a2e" font-family="system-ui" font-weight="700" font-size="22">Campaign Performance</text>
  <rect x="1200" y="62" width="160" height="36" rx="8" fill="#4580f7"/>
  <text x="1280" y="85" text-anchor="middle" fill="white" font-family="system-ui" font-weight="600" font-size="13">+ New Campaign</text>

  <!-- Metric cards -->
  <rect x="260" y="110" width="265" height="120" rx="10" fill="white" stroke="#e4e8f0" stroke-width="1"/>
  <text x="285" y="145" fill="#888" font-family="system-ui" font-size="12">EMAILS SENT</text>
  <text x="285" y="185" fill="#1a1a2e" font-family="system-ui" font-weight="700" font-size="32">24,847</text>
  <text x="285" y="215" fill="#28c840" font-family="system-ui" font-size="12">+12.4% vs last week</text>

  <rect x="545" y="110" width="265" height="120" rx="10" fill="white" stroke="#e4e8f0" stroke-width="1"/>
  <text x="570" y="145" fill="#888" font-family="system-ui" font-size="12">OPEN RATE</text>
  <text x="570" y="185" fill="#1a1a2e" font-family="system-ui" font-weight="700" font-size="32">62.3%</text>
  <text x="570" y="215" fill="#28c840" font-family="system-ui" font-size="12">+3.1% vs last week</text>

  <rect x="830" y="110" width="265" height="120" rx="10" fill="white" stroke="#e4e8f0" stroke-width="1"/>
  <text x="855" y="145" fill="#888" font-family="system-ui" font-size="12">REPLY RATE</text>
  <text x="855" y="185" fill="#1a1a2e" font-family="system-ui" font-weight="700" font-size="32">8.7%</text>
  <text x="855" y="215" fill="#4580f7" font-family="system-ui" font-size="12">Above benchmark</text>

  <rect x="1115" y="110" width="245" height="120" rx="10" fill="white" stroke="#e4e8f0" stroke-width="1"/>
  <text x="1140" y="145" fill="#888" font-family="system-ui" font-size="12">MEETINGS BOOKED</text>
  <text x="1140" y="185" fill="#1a1a2e" font-family="system-ui" font-weight="700" font-size="32">47</text>
  <text x="1140" y="215" fill="#28c840" font-family="system-ui" font-size="12">+8 this week</text>

  <!-- Campaign table -->
  <rect x="260" y="260" width="1100" height="480" rx="10" fill="white" stroke="#e4e8f0" stroke-width="1"/>
  <text x="285" y="295" fill="#1a1a2e" font-family="system-ui" font-weight="600" font-size="16">Active Campaigns</text>

  <!-- Table header -->
  <rect x="260" y="310" width="1100" height="40" fill="#f8faff"/>
  <text x="285" y="335" fill="#888" font-family="system-ui" font-weight="500" font-size="12">CAMPAIGN NAME</text>
  <text x="600" y="335" fill="#888" font-family="system-ui" font-weight="500" font-size="12">STATUS</text>
  <text x="730" y="335" fill="#888" font-family="system-ui" font-weight="500" font-size="12">SENT</text>
  <text x="850" y="335" fill="#888" font-family="system-ui" font-weight="500" font-size="12">OPENED</text>
  <text x="970" y="335" fill="#888" font-family="system-ui" font-weight="500" font-size="12">REPLIED</text>
  <text x="1100" y="335" fill="#888" font-family="system-ui" font-weight="500" font-size="12">BOUNCED</text>
  <text x="1230" y="335" fill="#888" font-family="system-ui" font-weight="500" font-size="12">MEETINGS</text>

  <!-- Row 1 -->
  <text x="285" y="380" fill="#1a1a2e" font-family="system-ui" font-size="13">Q2 SaaS Outreach - CEOs</text>
  <rect x="600" y="366" width="60" height="22" rx="11" fill="#d4edda"/>
  <text x="612" y="381" fill="#28a745" font-family="system-ui" font-size="11">Active</text>
  <text x="730" y="380" fill="#1a1a2e" font-family="system-ui" font-size="13">8,432</text>
  <text x="850" y="380" fill="#1a1a2e" font-family="system-ui" font-size="13">5,891</text>
  <text x="970" y="380" fill="#1a1a2e" font-family="system-ui" font-size="13">412</text>
  <text x="1100" y="380" fill="#1a1a2e" font-family="system-ui" font-size="13">87</text>
  <text x="1230" y="380" fill="#1a1a2e" font-family="system-ui" font-size="13">18</text>
  <line x1="260" y1="400" x2="1360" y2="400" stroke="#f0f2f5" stroke-width="1"/>

  <!-- Row 2 -->
  <text x="285" y="425" fill="#1a1a2e" font-family="system-ui" font-size="13">Agency Follow-up Sequence</text>
  <rect x="600" y="411" width="60" height="22" rx="11" fill="#d4edda"/>
  <text x="612" y="426" fill="#28a745" font-family="system-ui" font-size="11">Active</text>
  <text x="730" y="425" fill="#1a1a2e" font-family="system-ui" font-size="13">6,215</text>
  <text x="850" y="425" fill="#1a1a2e" font-family="system-ui" font-size="13">3,977</text>
  <text x="970" y="425" fill="#1a1a2e" font-family="system-ui" font-size="13">298</text>
  <text x="1100" y="425" fill="#1a1a2e" font-family="system-ui" font-size="13">43</text>
  <text x="1230" y="425" fill="#1a1a2e" font-family="system-ui" font-size="13">14</text>
  <line x1="260" y1="445" x2="1360" y2="445" stroke="#f0f2f5" stroke-width="1"/>

  <!-- Row 3 -->
  <text x="285" y="470" fill="#1a1a2e" font-family="system-ui" font-size="13">Enterprise ABM Campaign</text>
  <rect x="600" y="456" width="60" height="22" rx="11" fill="#fff3cd"/>
  <text x="608" y="471" fill="#856404" font-family="system-ui" font-size="11">Paused</text>
  <text x="730" y="470" fill="#1a1a2e" font-family="system-ui" font-size="13">4,200</text>
  <text x="850" y="470" fill="#1a1a2e" font-family="system-ui" font-size="13">2,814</text>
  <text x="970" y="470" fill="#1a1a2e" font-family="system-ui" font-size="13">189</text>
  <text x="1100" y="470" fill="#1a1a2e" font-family="system-ui" font-size="13">31</text>
  <text x="1230" y="470" fill="#1a1a2e" font-family="system-ui" font-size="13">9</text>
  <line x1="260" y1="490" x2="1360" y2="490" stroke="#f0f2f5" stroke-width="1"/>

  <!-- Row 4 -->
  <text x="285" y="515" fill="#1a1a2e" font-family="system-ui" font-size="13">Startup Founders - Series A</text>
  <rect x="600" y="501" width="60" height="22" rx="11" fill="#d4edda"/>
  <text x="612" y="516" fill="#28a745" font-family="system-ui" font-size="11">Active</text>
  <text x="730" y="515" fill="#1a1a2e" font-family="system-ui" font-size="13">3,900</text>
  <text x="850" y="515" fill="#1a1a2e" font-family="system-ui" font-size="13">2,496</text>
  <text x="970" y="515" fill="#1a1a2e" font-family="system-ui" font-size="13">156</text>
  <text x="1100" y="515" fill="#1a1a2e" font-family="system-ui" font-size="13">22</text>
  <text x="1230" y="515" fill="#1a1a2e" font-family="system-ui" font-size="13">6</text>
  <line x1="260" y1="535" x2="1360" y2="535" stroke="#f0f2f5" stroke-width="1"/>

  <!-- Row 5 -->
  <text x="285" y="560" fill="#1a1a2e" font-family="system-ui" font-size="13">Re-engagement - Cold Leads</text>
  <rect x="600" y="546" width="70" height="22" rx="11" fill="#cce5ff"/>
  <text x="608" y="561" fill="#004085" font-family="system-ui" font-size="11">Scheduled</text>
  <text x="730" y="560" fill="#1a1a2e" font-family="system-ui" font-size="13">2,100</text>
  <text x="850" y="560" fill="#1a1a2e" font-family="system-ui" font-size="13">1,512</text>
  <text x="970" y="560" fill="#1a1a2e" font-family="system-ui" font-size="13">98</text>
  <text x="1100" y="560" fill="#1a1a2e" font-family="system-ui" font-size="13">15</text>
  <text x="1230" y="560" fill="#1a1a2e" font-family="system-ui" font-size="13">0</text>
</svg>