<svg xmlns="http://www.w3.org/2000/svg" viewBox="0 0 1400 800" width="1400" height="800">
  <defs>
    <linearGradient id="lh-bg" x1="0" y1="0" x2="0" y2="1">
      <stop offset="0%" stop-color="#f5f7ff"/>
      <stop offset="100%" stop-color="#eef1ff"/>
    </linearGradient>
  </defs>
  <!-- Window chrome -->
  <rect width="1400" height="800" rx="12" fill="#1a2b5c"/>
  <rect x="0" y="0" width="1400" height="40" rx="12" fill="#243366"/>
  <rect x="0" y="28" width="1400" height="12" fill="#243366"/>
  <circle cx="20" cy="20" r="6" fill="#ff5f57"/>
  <circle cx="40" cy="20" r="6" fill="#ffbd2e"/>
  <circle cx="60" cy="20" r="6" fill="#28c840"/>
  <text x="700" y="25" text-anchor="middle" fill="#8899cc" font-family="system-ui" font-size="13">Linked Helper - Campaign Manager</text>

  <!-- Sidebar -->
  <rect x="0" y="40" width="220" height="760" fill="#1a2b5c"/>
  <text x="30" y="75" fill="white" font-family="system-ui" font-weight="700" font-size="16">Linked Helper</text>
  <rect x="15" y="95" width="190" height="36" rx="6" fill="#5b7cff" opacity="0.2"/>
  <text x="50" y="118" fill="#5b7cff" font-family="system-ui" font-weight="600" font-size="13">Dashboard</text>
  <text x="50" y="153" fill="#8899cc" font-family="system-ui" font-size="13">Campaigns</text>
  <text x="50" y="183" fill="#8899cc" font-family="system-ui" font-size="13">Connections</text>
  <text x="50" y="213" fill="#8899cc" font-family="system-ui" font-size="13">Messages</text>
  <text x="50" y="243" fill="#8899cc" font-family="system-ui" font-size="13">Profile Visits</text>
  <text x="50" y="273" fill="#8899cc" font-family="system-ui" font-size="13">Endorsements</text>
  <text x="50" y="303" fill="#8899cc" font-family="system-ui" font-size="13">InMail</text>
  <text x="50" y="333" fill="#8899cc" font-family="system-ui" font-size="13">Lists</text>
  <text x="50" y="363" fill="#8899cc" font-family="system-ui" font-size="13">Auto-Responder</text>
  <text x="50" y="393" fill="#8899cc" font-family="system-ui" font-size="13">CRM Export</text>
  <text x="50" y="423" fill="#8899cc" font-family="system-ui" font-size="13">Settings</text>

  <!-- Main content -->
  <rect x="220" y="40" width="1180" height="760" fill="url(#lh-bg)"/>

  <!-- Header -->
  <text x="260" y="85" fill="#1a2b5c" font-family="system-ui" font-weight="700" font-size="22">LinkedIn Automation Dashboard</text>
  <rect x="1180" y="62" width="180" height="36" rx="8" fill="#5b7cff"/>
  <text x="1270" y="85" text-anchor="middle" fill="white" font-family="system-ui" font-weight="600" font-size="13">+ New Campaign</text>

  <!-- Stats cards -->
  <rect x="260" y="110" width="265" height="120" rx="10" fill="white" stroke="#dde2f2" stroke-width="1"/>
  <text x="285" y="145" fill="#6b7280" font-family="system-ui" font-size="12">CONNECTIONS SENT</text>
  <text x="285" y="185" fill="#1a2b5c" font-family="system-ui" font-weight="700" font-size="32">3,847</text>
  <text x="285" y="215" fill="#28c840" font-family="system-ui" font-size="12">+340 this week</text>

  <rect x="545" y="110" width="265" height="120" rx="10" fill="white" stroke="#dde2f2" stroke-width="1"/>
  <text x="570" y="145" fill="#6b7280" font-family="system-ui" font-size="12">ACCEPTANCE RATE</text>
  <text x="570" y="185" fill="#1a2b5c" font-family="system-ui" font-weight="700" font-size="32">34.2%</text>
  <text x="570" y="215" fill="#5b7cff" font-family="system-ui" font-size="12">Above average</text>

  <rect x="830" y="110" width="265" height="120" rx="10" fill="white" stroke="#dde2f2" stroke-width="1"/>
  <text x="855" y="145" fill="#6b7280" font-family="system-ui" font-size="12">MESSAGES SENT</text>
  <text x="855" y="185" fill="#1a2b5c" font-family="system-ui" font-weight="700" font-size="32">1,256</text>
  <text x="855" y="215" fill="#28c840" font-family="system-ui" font-size="12">78% reply rate</text>

  <rect x="1115" y="110" width="245" height="120" rx="10" fill="white" stroke="#dde2f2" stroke-width="1"/>
  <text x="1140" y="145" fill="#6b7280" font-family="system-ui" font-size="12">PROFILES VISITED</text>
  <text x="1140" y="185" fill="#1a2b5c" font-family="system-ui" font-weight="700" font-size="32">12,490</text>
  <text x="1140" y="215" fill="#28c840" font-family="system-ui" font-size="12">+1,200 this week</text>

  <!-- Campaign list -->
  <rect x="260" y="260" width="540" height="480" rx="10" fill="white" stroke="#dde2f2" stroke-width="1"/>
  <text x="285" y="295" fill="#1a2b5c" font-family="system-ui" font-weight="600" font-size="16">Active Campaigns</text>

  <!-- Campaign items -->
  <rect x="275" y="315" width="510" height="70" rx="8" fill="#f8f9ff" stroke="#e8ecf8" stroke-width="1"/>
  <text x="295" y="342" fill="#1a2b5c" font-family="system-ui" font-weight="600" font-size="14">SaaS CEOs - Connect + Message</text>
  <text x="295" y="365" fill="#6b7280" font-family="system-ui" font-size="12">890 invites sent - 312 accepted - 189 messaged</text>
  <rect x="700" y="330" width="65" height="22" rx="11" fill="#d4edda"/>
  <text x="712" y="345" fill="#28a745" font-family="system-ui" font-size="11">Running</text>

  <rect x="275" y="400" width="510" height="70" rx="8" fill="#f8f9ff" stroke="#e8ecf8" stroke-width="1"/>
  <text x="295" y="427" fill="#1a2b5c" font-family="system-ui" font-weight="600" font-size="14">Agency Founders - Profile Visit</text>
  <text x="295" y="450" fill="#6b7280" font-family="system-ui" font-size="12">2,400 profiles visited - 890 viewed back</text>
  <rect x="700" y="415" width="65" height="22" rx="11" fill="#d4edda"/>
  <text x="712" y="430" fill="#28a745" font-family="system-ui" font-size="11">Running</text>

  <rect x="275" y="485" width="510" height="70" rx="8" fill="#f8f9ff" stroke="#e8ecf8" stroke-width="1"/>
  <text x="295" y="512" fill="#1a2b5c" font-family="system-ui" font-weight="600" font-size="14">VP Sales - Endorsement Chain</text>
  <text x="295" y="535" fill="#6b7280" font-family="system-ui" font-size="12">340 endorsements given - 156 connected</text>
  <rect x="700" y="500" width="65" height="22" rx="11" fill="#fff3cd"/>
  <text x="712" y="515" fill="#856404" font-family="system-ui" font-size="11">Paused</text>

  <rect x="275" y="570" width="510" height="70" rx="8" fill="#f8f9ff" stroke="#e8ecf8" stroke-width="1"/>
  <text x="295" y="597" fill="#1a2b5c" font-family="system-ui" font-weight="600" font-size="14">Marketing Directors - InMail</text>
  <text x="295" y="620" fill="#6b7280" font-family="system-ui" font-size="12">217 InMails sent - 89 opened - 34 replied</text>
  <rect x="700" y="585" width="65" height="22" rx="11" fill="#d4edda"/>
  <text x="712" y="600" fill="#28a745" font-family="system-ui" font-size="11">Running</text>

  <!-- Activity log -->
  <rect x="820" y="260" width="540" height="480" rx="10" fill="white" stroke="#dde2f2" stroke-width="1"/>
  <text x="845" y="295" fill="#1a2b5c" font-family="system-ui" font-weight="600" font-size="16">Recent Activity</text>

  <text x="845" y="330" fill="#6b7280" font-family="system-ui" font-size="11">2 min ago</text>
  <text x="930" y="330" fill="#1a2b5c" font-family="system-ui" font-size="13">Connection accepted by Sarah M.</text>
  <line x1="820" y1="345" x2="1360" y2="345" stroke="#f0f2f5" stroke-width="1"/>

  <text x="845" y="370" fill="#6b7280" font-family="system-ui" font-size="11">5 min ago</text>
  <text x="930" y="370" fill="#1a2b5c" font-family="system-ui" font-size="13">Message sent to James K. (follow-up)</text>
  <line x1="820" y1="385" x2="1360" y2="385" stroke="#f0f2f5" stroke-width="1"/>

  <text x="845" y="410" fill="#6b7280" font-family="system-ui" font-size="11">8 min ago</text>
  <text x="930" y="410" fill="#1a2b5c" font-family="system-ui" font-size="13">Profile visited: Michael R., CTO at Acme</text>
  <line x1="820" y1="425" x2="1360" y2="425" stroke="#f0f2f5" stroke-width="1"/>

  <text x="845" y="450" fill="#6b7280" font-family="system-ui" font-size="11">12 min ago</text>
  <text x="930" y="450" fill="#1a2b5c" font-family="system-ui" font-size="13">Invite sent to Lisa P., VP Marketing</text>
  <line x1="820" y1="465" x2="1360" y2="465" stroke="#f0f2f5" stroke-width="1"/>

  <text x="845" y="490" fill="#6b7280" font-family="system-ui" font-size="11">15 min ago</text>
  <text x="930" y="490" fill="#1a2b5c" font-family="system-ui" font-size="13">Endorsement given to David S.</text>
  <line x1="820" y1="505" x2="1360" y2="505" stroke="#f0f2f5" stroke-width="1"/>

  <text x="845" y="530" fill="#6b7280" font-family="system-ui" font-size="11">18 min ago</text>
  <text x="930" y="530" fill="#1a2b5c" font-family="system-ui" font-size="13">Reply received from Alex T., CEO</text>
  <line x1="820" y1="545" x2="1360" y2="545" stroke="#f0f2f5" stroke-width="1"/>

  <text x="845" y="570" fill="#6b7280" font-family="system-ui" font-size="11">22 min ago</text>
  <text x="930" y="570" fill="#1a2b5c" font-family="system-ui" font-size="13">Connection accepted by Rachel W.</text>
  <line x1="820" y1="585" x2="1360" y2="585" stroke="#f0f2f5" stroke-width="1"/>

  <text x="845" y="610" fill="#6b7280" font-family="system-ui" font-size="11">25 min ago</text>
  <text x="930" y="610" fill="#1a2b5c" font-family="system-ui" font-size="13">Profile visited: Tom H., Head of Sales</text>
</svg>