<svg xmlns="http://www.w3.org/2000/svg" viewBox="0 0 1400 800" width="1400" height="800">
  <defs>
    <linearGradient id="rep-bg" x1="0" y1="0" x2="0" y2="1">
      <stop offset="0%" stop-color="#f7f8fc"/>
      <stop offset="100%" stop-color="#f0f1f8"/>
    </linearGradient>
  </defs>
  <!-- Window chrome -->
  <rect width="1400" height="800" rx="12" fill="#1a1f36"/>
  <rect x="0" y="0" width="1400" height="40" rx="12" fill="#252a42"/>
  <rect x="0" y="28" width="1400" height="12" fill="#252a42"/>
  <circle cx="20" cy="20" r="6" fill="#ff5f57"/>
  <circle cx="40" cy="20" r="6" fill="#ffbd2e"/>
  <circle cx="60" cy="20" r="6" fill="#28c840"/>
  <text x="700" y="25" text-anchor="middle" fill="#8890aa" font-family="system-ui" font-size="13">Reply.io - Sales Engagement Platform</text>

  <!-- Sidebar -->
  <rect x="0" y="40" width="220" height="760" fill="#1a1f36"/>
  <text x="30" y="78" fill="#6c63ff" font-family="system-ui" font-weight="700" font-size="20">Reply</text>
  <rect x="15" y="95" width="190" height="36" rx="6" fill="#6c63ff" opacity="0.15"/>
  <text x="50" y="118" fill="#6c63ff" font-family="system-ui" font-weight="600" font-size="13">Sequences</text>
  <text x="50" y="153" fill="#8890aa" font-family="system-ui" font-size="13">People</text>
  <text x="50" y="183" fill="#8890aa" font-family="system-ui" font-size="13">Inbox</text>
  <text x="50" y="213" fill="#8890aa" font-family="system-ui" font-size="13">Tasks</text>
  <text x="50" y="243" fill="#8890aa" font-family="system-ui" font-size="13">Reports</text>
  <text x="50" y="273" fill="#8890aa" font-family="system-ui" font-size="13">Data</text>
  <text x="50" y="303" fill="#8890aa" font-family="system-ui" font-size="13">AI SDR Agent</text>
  <text x="50" y="333" fill="#8890aa" font-family="system-ui" font-size="13">Integrations</text>
  <text x="50" y="363" fill="#8890aa" font-family="system-ui" font-size="13">Templates</text>
  <text x="50" y="393" fill="#8890aa" font-family="system-ui" font-size="13">Settings</text>

  <!-- Main content -->
  <rect x="220" y="40" width="1180" height="760" fill="url(#rep-bg)"/>

  <text x="260" y="85" fill="#1a1f36" font-family="system-ui" font-weight="700" font-size="22">Sequence Performance</text>
  <rect x="1200" y="62" width="160" height="36" rx="8" fill="#6c63ff"/>
  <text x="1280" y="85" text-anchor="middle" fill="white" font-family="system-ui" font-weight="600" font-size="13">+ New Sequence</text>

  <!-- Metric cards -->
  <rect x="260" y="110" width="220" height="110" rx="10" fill="white" stroke="#e2e4f0" stroke-width="1"/>
  <text x="280" y="140" fill="#888" font-family="system-ui" font-size="11">TOTAL CONTACTS</text>
  <text x="280" y="175" fill="#1a1f36" font-family="system-ui" font-weight="700" font-size="28">15,240</text>
  <text x="280" y="200" fill="#28c840" font-family="system-ui" font-size="11">+1,840 this month</text>

  <rect x="500" y="110" width="220" height="110" rx="10" fill="white" stroke="#e2e4f0" stroke-width="1"/>
  <text x="520" y="140" fill="#888" font-family="system-ui" font-size="11">EMAILS DELIVERED</text>
  <text x="520" y="175" fill="#1a1f36" font-family="system-ui" font-weight="700" font-size="28">42,180</text>
  <text x="520" y="200" fill="#28c840" font-family="system-ui" font-size="11">98.2% delivery rate</text>

  <rect x="740" y="110" width="220" height="110" rx="10" fill="white" stroke="#e2e4f0" stroke-width="1"/>
  <text x="760" y="140" fill="#888" font-family="system-ui" font-size="11">OPEN RATE</text>
  <text x="760" y="175" fill="#1a1f36" font-family="system-ui" font-weight="700" font-size="28">54.7%</text>
  <text x="760" y="200" fill="#6c63ff" font-family="system-ui" font-size="11">+5.2% vs avg</text>

  <rect x="980" y="110" width="220" height="110" rx="10" fill="white" stroke="#e2e4f0" stroke-width="1"/>
  <text x="1000" y="140" fill="#888" font-family="system-ui" font-size="11">REPLY RATE</text>
  <text x="1000" y="175" fill="#1a1f36" font-family="system-ui" font-weight="700" font-size="28">9.3%</text>
  <text x="1000" y="200" fill="#28c840" font-family="system-ui" font-size="11">Above benchmark</text>

  <!-- Chart area -->
  <rect x="260" y="245" width="540" height="260" rx="10" fill="white" stroke="#e2e4f0" stroke-width="1"/>
  <text x="285" y="280" fill="#1a1f36" font-family="system-ui" font-weight="600" font-size="14">Engagement Over Time</text>

  <!-- Simple bar chart -->
  <rect x="310" y="410" width="40" height="70" rx="4" fill="#6c63ff" opacity="0.3"/>
  <rect x="310" y="360" width="40" height="50" rx="4" fill="#6c63ff"/>
  <text x="330" y="495" text-anchor="middle" fill="#888" font-family="system-ui" font-size="9">Mon</text>

  <rect x="370" y="390" width="40" height="90" rx="4" fill="#6c63ff" opacity="0.3"/>
  <rect x="370" y="340" width="40" height="50" rx="4" fill="#6c63ff"/>
  <text x="390" y="495" text-anchor="middle" fill="#888" font-family="system-ui" font-size="9">Tue</text>

  <rect x="430" y="370" width="40" height="110" rx="4" fill="#6c63ff" opacity="0.3"/>
  <rect x="430" y="320" width="40" height="50" rx="4" fill="#6c63ff"/>
  <text x="450" y="495" text-anchor="middle" fill="#888" font-family="system-ui" font-size="9">Wed</text>

  <rect x="490" y="380" width="40" height="100" rx="4" fill="#6c63ff" opacity="0.3"/>
  <rect x="490" y="330" width="40" height="50" rx="4" fill="#6c63ff"/>
  <text x="510" y="495" text-anchor="middle" fill="#888" font-family="system-ui" font-size="9">Thu</text>

  <rect x="550" y="350" width="40" height="130" rx="4" fill="#6c63ff" opacity="0.3"/>
  <rect x="550" y="300" width="40" height="50" rx="4" fill="#6c63ff"/>
  <text x="570" y="495" text-anchor="middle" fill="#888" font-family="system-ui" font-size="9">Fri</text>

  <rect x="610" y="420" width="40" height="60" rx="4" fill="#6c63ff" opacity="0.3"/>
  <rect x="610" y="380" width="40" height="40" rx="4" fill="#6c63ff"/>
  <text x="630" y="495" text-anchor="middle" fill="#888" font-family="system-ui" font-size="9">Sat</text>

  <rect x="670" y="440" width="40" height="40" rx="4" fill="#6c63ff" opacity="0.3"/>
  <rect x="670" y="410" width="40" height="30" rx="4" fill="#6c63ff"/>
  <text x="690" y="495" text-anchor="middle" fill="#888" font-family="system-ui" font-size="9">Sun</text>

  <!-- Legend -->
  <rect x="310" y="300" width="10" height="10" rx="2" fill="#6c63ff"/>
  <text x="325" y="310" fill="#888" font-family="system-ui" font-size="10">Opens</text>
  <rect x="380" y="300" width="10" height="10" rx="2" fill="#6c63ff" opacity="0.3"/>
  <text x="395" y="310" fill="#888" font-family="system-ui" font-size="10">Replies</text>

  <!-- AI SDR panel -->
  <rect x="820" y="245" width="540" height="260" rx="10" fill="white" stroke="#e2e4f0" stroke-width="1"/>
  <text x="845" y="280" fill="#1a1f36" font-family="system-ui" font-weight="600" font-size="14">AI SDR Agent Activity</text>
  <rect x="845" y="300" width="490" height="40" rx="6" fill="#f0eeff"/>
  <text x="865" y="325" fill="#6c63ff" font-family="system-ui" font-size="12">AI generated 34 personalized emails today</text>
  <rect x="845" y="355" width="490" height="40" rx="6" fill="#f0fef0"/>
  <text x="865" y="380" fill="#28a745" font-family="system-ui" font-size="12">12 leads auto-qualified and added to sequences</text>
  <rect x="845" y="410" width="490" height="40" rx="6" fill="#fff8f0"/>
  <text x="865" y="435" fill="#d97706" font-family="system-ui" font-size="12">3 leads flagged for manual review</text>
  <rect x="845" y="465" width="100" height="28" rx="6" fill="#6c63ff"/>
  <text x="895" y="484" text-anchor="middle" fill="white" font-family="system-ui" font-size="11">View All</text>

  <!-- Sequence table -->
  <rect x="260" y="525" width="1100" height="255" rx="10" fill="white" stroke="#e2e4f0" stroke-width="1"/>
  <text x="285" y="560" fill="#1a1f36" font-family="system-ui" font-weight="600" font-size="16">Active Sequences</text>

  <rect x="260" y="575" width="1100" height="35" fill="#f8f8fc"/>
  <text x="285" y="597" fill="#888" font-family="system-ui" font-weight="500" font-size="11">SEQUENCE</text>
  <text x="560" y="597" fill="#888" font-family="system-ui" font-weight="500" font-size="11">STEPS</text>
  <text x="650" y="597" fill="#888" font-family="system-ui" font-weight="500" font-size="11">CONTACTS</text>
  <text x="770" y="597" fill="#888" font-family="system-ui" font-weight="500" font-size="11">DELIVERED</text>
  <text x="890" y="597" fill="#888" font-family="system-ui" font-weight="500" font-size="11">OPENED</text>
  <text x="1000" y="597" fill="#888" font-family="system-ui" font-weight="500" font-size="11">REPLIED</text>
  <text x="1110" y="597" fill="#888" font-family="system-ui" font-weight="500" font-size="11">BOOKED</text>
  <text x="1230" y="597" fill="#888" font-family="system-ui" font-weight="500" font-size="11">STATUS</text>

  <text x="285" y="637" fill="#1a1f36" font-family="system-ui" font-size="13">Q2 Outreach - Tech Leaders</text>
  <text x="560" y="637" fill="#1a1f36" font-family="system-ui" font-size="13">7</text>
  <text x="650" y="637" fill="#1a1f36" font-family="system-ui" font-size="13">5,400</text>
  <text x="770" y="637" fill="#1a1f36" font-family="system-ui" font-size="13">14,820</text>
  <text x="890" y="637" fill="#1a1f36" font-family="system-ui" font-size="13">8,100</text>
  <text x="1000" y="637" fill="#1a1f36" font-family="system-ui" font-size="13">502</text>
  <text x="1110" y="637" fill="#1a1f36" font-family="system-ui" font-size="13">28</text>
  <rect x="1225" y="623" width="55" height="22" rx="11" fill="#d4edda"/>
  <text x="1235" y="638" fill="#28a745" font-family="system-ui" font-size="11">Active</text>
  <line x1="260" y1="653" x2="1360" y2="653" stroke="#f0f2f5" stroke-width="1"/>

  <text x="285" y="682" fill="#1a1f36" font-family="system-ui" font-size="13">Agency Owners Follow-Up</text>
  <text x="560" y="682" fill="#1a1f36" font-family="system-ui" font-size="13">5</text>
  <text x="650" y="682" fill="#1a1f36" font-family="system-ui" font-size="13">3,200</text>
  <text x="770" y="682" fill="#1a1f36" font-family="system-ui" font-size="13">9,600</text>
  <text x="890" y="682" fill="#1a1f36" font-family="system-ui" font-size="13">5,280</text>
  <text x="1000" y="682" fill="#1a1f36" font-family="system-ui" font-size="13">384</text>
  <text x="1110" y="682" fill="#1a1f36" font-family="system-ui" font-size="13">19</text>
  <rect x="1225" y="668" width="55" height="22" rx="11" fill="#d4edda"/>
  <text x="1235" y="683" fill="#28a745" font-family="system-ui" font-size="11">Active</text>
  <line x1="260" y1="698" x2="1360" y2="698" stroke="#f0f2f5" stroke-width="1"/>

  <text x="285" y="727" fill="#1a1f36" font-family="system-ui" font-size="13">SMB Warm Leads Europe</text>
  <text x="560" y="727" fill="#1a1f36" font-family="system-ui" font-size="13">4</text>
  <text x="650" y="727" fill="#1a1f36" font-family="system-ui" font-size="13">2,100</text>
  <text x="770" y="727" fill="#1a1f36" font-family="system-ui" font-size="13">6,300</text>
  <text x="890" y="727" fill="#1a1f36" font-family="system-ui" font-size="13">3,654</text>
  <text x="1000" y="727" fill="#1a1f36" font-family="system-ui" font-size="13">231</text>
  <text x="1110" y="727" fill="#1a1f36" font-family="system-ui" font-size="13">12</text>
  <rect x="1225" y="713" width="60" height="22" rx="11" fill="#fff3cd"/>
  <text x="1233" y="728" fill="#856404" font-family="system-ui" font-size="11">Paused</text>
</svg>