<svg xmlns="http://www.w3.org/2000/svg" viewBox="0 0 1400 800" width="1400" height="800">
  <defs>
    <linearGradient id="sl-bg" x1="0" y1="0" x2="0" y2="1">
      <stop offset="0%" stop-color="#fbfbff"/>
      <stop offset="100%" stop-color="#f5f5fc"/>
    </linearGradient>
  </defs>
  <!-- Window chrome -->
  <rect width="1400" height="800" rx="12" fill="#1D293D"/>
  <rect x="0" y="0" width="1400" height="40" rx="12" fill="#263348"/>
  <rect x="0" y="28" width="1400" height="12" fill="#263348"/>
  <circle cx="20" cy="20" r="6" fill="#ff5f57"/>
  <circle cx="40" cy="20" r="6" fill="#ffbd2e"/>
  <circle cx="60" cy="20" r="6" fill="#28c840"/>
  <text x="700" y="25" text-anchor="middle" fill="#8899bb" font-family="system-ui" font-size="13">Smartlead - Master Inbox</text>

  <!-- Sidebar -->
  <rect x="0" y="40" width="220" height="760" fill="#1D293D"/>
  <text x="30" y="78" fill="#6E58F1" font-family="system-ui" font-weight="700" font-size="18">Smartlead</text>
  <rect x="15" y="95" width="190" height="36" rx="6" fill="#6E58F1" opacity="0.2"/>
  <text x="50" y="118" fill="#6E58F1" font-family="system-ui" font-weight="600" font-size="13">Master Inbox</text>
  <text x="50" y="153" fill="#8899bb" font-family="system-ui" font-size="13">Campaigns</text>
  <text x="50" y="183" fill="#8899bb" font-family="system-ui" font-size="13">Leads</text>
  <text x="50" y="213" fill="#8899bb" font-family="system-ui" font-size="13">Email Accounts</text>
  <text x="50" y="243" fill="#8899bb" font-family="system-ui" font-size="13">Deals</text>
  <text x="50" y="273" fill="#8899bb" font-family="system-ui" font-size="13">Webhooks</text>
  <text x="50" y="303" fill="#8899bb" font-family="system-ui" font-size="13">Auto Rotation</text>
  <text x="50" y="333" fill="#8899bb" font-family="system-ui" font-size="13">Warm-Up</text>
  <text x="50" y="363" fill="#8899bb" font-family="system-ui" font-size="13">Analytics</text>
  <text x="50" y="393" fill="#8899bb" font-family="system-ui" font-size="13">API</text>
  <text x="50" y="423" fill="#8899bb" font-family="system-ui" font-size="13">Settings</text>

  <!-- Main -->
  <rect x="220" y="40" width="1180" height="760" fill="url(#sl-bg)"/>

  <text x="260" y="85" fill="#1D293D" font-family="system-ui" font-weight="700" font-size="22">Master Inbox</text>
  <rect x="1060" y="62" width="120" height="36" rx="8" fill="#6E58F1"/>
  <text x="1120" y="85" text-anchor="middle" fill="white" font-family="system-ui" font-weight="600" font-size="13">Bulk Actions</text>
  <rect x="1200" y="62" width="160" height="36" rx="8" fill="#5B40FB"/>
  <text x="1280" y="85" text-anchor="middle" fill="white" font-family="system-ui" font-weight="600" font-size="13">+ New Campaign</text>

  <!-- Stats bar -->
  <rect x="260" y="110" width="1100" height="55" rx="10" fill="white" stroke="#e2e4f4" stroke-width="1"/>
  <text x="310" y="143" fill="#888" font-family="system-ui" font-size="11">All</text>
  <text x="340" y="143" fill="#1D293D" font-family="system-ui" font-weight="700" font-size="14">847</text>
  <line x1="390" y1="120" x2="390" y2="155" stroke="#e8ecf0" stroke-width="1"/>
  <text x="420" y="143" fill="#6E58F1" font-family="system-ui" font-size="11">Interested</text>
  <text x="490" y="143" fill="#6E58F1" font-family="system-ui" font-weight="700" font-size="14">124</text>
  <line x1="530" y1="120" x2="530" y2="155" stroke="#e8ecf0" stroke-width="1"/>
  <text x="560" y="143" fill="#28c840" font-family="system-ui" font-size="11">Meeting Booked</text>
  <text x="660" y="143" fill="#28c840" font-family="system-ui" font-weight="700" font-size="14">38</text>
  <line x1="700" y1="120" x2="700" y2="155" stroke="#e8ecf0" stroke-width="1"/>
  <text x="730" y="143" fill="#d97706" font-family="system-ui" font-size="11">Not Now</text>
  <text x="795" y="143" fill="#d97706" font-family="system-ui" font-weight="700" font-size="14">89</text>
  <line x1="830" y1="120" x2="830" y2="155" stroke="#e8ecf0" stroke-width="1"/>
  <text x="860" y="143" fill="#dc3545" font-family="system-ui" font-size="11">Not Interested</text>
  <text x="960" y="143" fill="#dc3545" font-family="system-ui" font-weight="700" font-size="14">201</text>
  <line x1="1000" y1="120" x2="1000" y2="155" stroke="#e8ecf0" stroke-width="1"/>
  <text x="1030" y="143" fill="#888" font-family="system-ui" font-size="11">Unread</text>
  <text x="1085" y="143" fill="#1D293D" font-family="system-ui" font-weight="700" font-size="14">395</text>

  <!-- Email list -->
  <rect x="260" y="185" width="480" height="595" rx="10" fill="white" stroke="#e2e4f4" stroke-width="1"/>

  <!-- Email item 1 - highlighted -->
  <rect x="260" y="185" width="480" height="75" rx="10" fill="#f3f0ff"/>
  <circle cx="295" cy="222" r="18" fill="#6E58F1"/>
  <text x="295" y="228" text-anchor="middle" fill="white" font-family="system-ui" font-weight="600" font-size="13">JD</text>
  <text x="325" y="215" fill="#1D293D" font-family="system-ui" font-weight="600" font-size="13">James Davidson - CEO at TechFlow</text>
  <text x="325" y="235" fill="#666" font-family="system-ui" font-size="11">That sounds interesting. Can we schedule a call next week?</text>
  <rect x="635" y="200" width="65" height="20" rx="10" fill="#d4edda"/>
  <text x="648" y="214" fill="#28a745" font-family="system-ui" font-size="10">Interested</text>
  <text x="640" y="248" fill="#aaa" font-family="system-ui" font-size="10">2m ago</text>

  <!-- Email item 2 -->
  <rect x="275" y="270" width="450" height="65" rx="6" fill="white"/>
  <circle cx="295" cy="302" r="18" fill="#3b82f6"/>
  <text x="295" y="308" text-anchor="middle" fill="white" font-family="system-ui" font-weight="600" font-size="13">SK</text>
  <text x="325" y="295" fill="#1D293D" font-family="system-ui" font-weight="600" font-size="13">Sarah Kim - VP Sales at CloudBase</text>
  <text x="325" y="315" fill="#666" font-family="system-ui" font-size="11">Thanks for reaching out. We're looking into this Q3.</text>
  <text x="640" y="310" fill="#aaa" font-family="system-ui" font-size="10">15m ago</text>
  <line x1="275" y1="340" x2="725" y2="340" stroke="#f0f2f5" stroke-width="1"/>

  <!-- Email item 3 -->
  <rect x="275" y="345" width="450" height="65" rx="6" fill="white"/>
  <circle cx="295" cy="377" r="18" fill="#dc3545"/>
  <text x="295" y="383" text-anchor="middle" fill="white" font-family="system-ui" font-weight="600" font-size="13">MR</text>
  <text x="325" y="370" fill="#1D293D" font-family="system-ui" font-weight="600" font-size="13">Michael Ross - CTO at DataSync</text>
  <text x="325" y="390" fill="#666" font-family="system-ui" font-size="11">Please remove me from your list.</text>
  <text x="640" y="385" fill="#aaa" font-family="system-ui" font-size="10">1h ago</text>
  <line x1="275" y1="415" x2="725" y2="415" stroke="#f0f2f5" stroke-width="1"/>

  <!-- Email item 4 -->
  <rect x="275" y="420" width="450" height="65" rx="6" fill="white"/>
  <circle cx="295" cy="452" r="18" fill="#6E58F1"/>
  <text x="295" y="458" text-anchor="middle" fill="white" font-family="system-ui" font-weight="600" font-size="13">LP</text>
  <text x="325" y="445" fill="#1D293D" font-family="system-ui" font-weight="600" font-size="13">Lisa Park - Head of Ops at ScaleUp</text>
  <text x="325" y="465" fill="#666" font-family="system-ui" font-size="11">Could you send more details about the pricing?</text>
  <text x="640" y="460" fill="#aaa" font-family="system-ui" font-size="10">2h ago</text>
  <line x1="275" y1="490" x2="725" y2="490" stroke="#f0f2f5" stroke-width="1"/>

  <!-- Email item 5 -->
  <rect x="275" y="495" width="450" height="65" rx="6" fill="white"/>
  <circle cx="295" cy="527" r="18" fill="#d97706"/>
  <text x="295" y="533" text-anchor="middle" fill="white" font-family="system-ui" font-weight="600" font-size="13">AT</text>
  <text x="325" y="520" fill="#1D293D" font-family="system-ui" font-weight="600" font-size="13">Alex Turner - CMO at GrowthLab</text>
  <text x="325" y="540" fill="#666" font-family="system-ui" font-size="11">Not a priority right now, maybe reach back in September.</text>
  <text x="640" y="535" fill="#aaa" font-family="system-ui" font-size="10">3h ago</text>
  <line x1="275" y1="565" x2="725" y2="565" stroke="#f0f2f5" stroke-width="1"/>

  <!-- More items indicator -->
  <text x="490" y="600" text-anchor="middle" fill="#6E58F1" font-family="system-ui" font-size="12">View 842 more conversations</text>

  <!-- Email detail panel -->
  <rect x="760" y="185" width="600" height="595" rx="10" fill="white" stroke="#e2e4f4" stroke-width="1"/>
  <text x="785" y="220" fill="#1D293D" font-family="system-ui" font-weight="600" font-size="16">James Davidson</text>
  <text x="785" y="242" fill="#666" font-family="system-ui" font-size="12">CEO at TechFlow - james@techflow.io</text>
  <text x="785" y="260" fill="#888" font-family="system-ui" font-size="11">Campaign: Q2 SaaS Outreach | Step 3 of 5</text>

  <rect x="785" y="280" width="555" height="40" rx="6" fill="#f3f0ff"/>
  <text x="800" y="305" fill="#6E58F1" font-family="system-ui" font-weight="500" font-size="12">Auto-categorized as: Interested (98% confidence)</text>

  <!-- Thread -->
  <rect x="785" y="340" width="555" height="80" rx="8" fill="#f8f8fc"/>
  <text x="805" y="365" fill="#6E58F1" font-family="system-ui" font-weight="600" font-size="12">You (Step 3 - Follow up)</text>
  <text x="1240" y="365" fill="#aaa" font-family="system-ui" font-size="10">Apr 9, 2:30 PM</text>
  <text x="805" y="385" fill="#666" font-family="system-ui" font-size="12">Hi James, wanted to follow up on my previous email about...</text>
  <text x="805" y="405" fill="#666" font-family="system-ui" font-size="12">Would you be open to a quick 15-min call this week?</text>

  <rect x="785" y="435" width="555" height="70" rx="8" fill="#f0fdf0"/>
  <text x="805" y="460" fill="#28a745" font-family="system-ui" font-weight="600" font-size="12">James Davidson</text>
  <text x="1240" y="460" fill="#aaa" font-family="system-ui" font-size="10">Apr 10, 9:15 AM</text>
  <text x="805" y="480" fill="#666" font-family="system-ui" font-size="12">That sounds interesting. Can we schedule a call next week?</text>
  <text x="805" y="496" fill="#666" font-family="system-ui" font-size="12">Tuesday or Wednesday afternoon works best.</text>

  <!-- Action buttons -->
  <rect x="785" y="525" width="100" height="32" rx="6" fill="#6E58F1"/>
  <text x="835" y="546" text-anchor="middle" fill="white" font-family="system-ui" font-size="12">Reply</text>
  <rect x="900" y="525" width="130" height="32" rx="6" fill="white" stroke="#6E58F1" stroke-width="1.5"/>
  <text x="965" y="546" text-anchor="middle" fill="#6E58F1" font-family="system-ui" font-size="12">Book Meeting</text>
  <rect x="1045" y="525" width="100" height="32" rx="6" fill="white" stroke="#ddd" stroke-width="1"/>
  <text x="1095" y="546" text-anchor="middle" fill="#666" font-family="system-ui" font-size="12">Move Deal</text>
</svg>