<svg xmlns="http://www.w3.org/2000/svg" viewBox="0 0 1400 800" width="1400" height="800">
  <defs>
    <linearGradient id="wp-bg" x1="0" y1="0" x2="0" y2="1">
      <stop offset="0%" stop-color="#fafbfc"/>
      <stop offset="100%" stop-color="#f4f5f7"/>
    </linearGradient>
  </defs>
  <!-- Window chrome -->
  <rect width="1400" height="800" rx="12" fill="#1a2332"/>
  <rect x="0" y="0" width="1400" height="40" rx="12" fill="#243040"/>
  <rect x="0" y="28" width="1400" height="12" fill="#243040"/>
  <circle cx="20" cy="20" r="6" fill="#ff5f57"/>
  <circle cx="40" cy="20" r="6" fill="#ffbd2e"/>
  <circle cx="60" cy="20" r="6" fill="#28c840"/>
  <text x="700" y="25" text-anchor="middle" fill="#8899aa" font-family="system-ui" font-size="13">Woodpecker - Cold Email Campaigns</text>

  <!-- Sidebar -->
  <rect x="0" y="40" width="220" height="760" fill="#1a2332"/>
  <text x="30" y="78" fill="#43b649" font-family="system-ui" font-weight="700" font-size="18">Woodpecker</text>
  <rect x="15" y="95" width="190" height="36" rx="6" fill="#43b649" opacity="0.15"/>
  <text x="50" y="118" fill="#43b649" font-family="system-ui" font-weight="600" font-size="13">Campaigns</text>
  <text x="50" y="153" fill="#8899aa" font-family="system-ui" font-size="13">Prospects</text>
  <text x="50" y="183" fill="#8899aa" font-family="system-ui" font-size="13">Stats</text>
  <text x="50" y="213" fill="#8899aa" font-family="system-ui" font-size="13">Warm-Up</text>
  <text x="50" y="243" fill="#8899aa" font-family="system-ui" font-size="13">Deliverability</text>
  <text x="50" y="273" fill="#8899aa" font-family="system-ui" font-size="13">Inbox Rotation</text>
  <text x="50" y="303" fill="#8899aa" font-family="system-ui" font-size="13">A/B Tests</text>
  <text x="50" y="333" fill="#8899aa" font-family="system-ui" font-size="13">Integrations</text>
  <text x="50" y="363" fill="#8899aa" font-family="system-ui" font-size="13">Email Verification</text>
  <text x="50" y="393" fill="#8899aa" font-family="system-ui" font-size="13">Settings</text>

  <!-- Main -->
  <rect x="220" y="40" width="1180" height="760" fill="url(#wp-bg)"/>

  <text x="260" y="85" fill="#1a2332" font-family="system-ui" font-weight="700" font-size="22">Campaign Overview</text>
  <rect x="1200" y="62" width="160" height="36" rx="8" fill="#43b649"/>
  <text x="1280" y="85" text-anchor="middle" fill="white" font-family="system-ui" font-weight="600" font-size="13">+ New Campaign</text>

  <!-- Stats -->
  <rect x="260" y="110" width="220" height="110" rx="10" fill="white" stroke="#e4e8ec" stroke-width="1"/>
  <text x="280" y="140" fill="#888" font-family="system-ui" font-size="11">EMAILS SENT</text>
  <text x="280" y="175" fill="#1a2332" font-family="system-ui" font-weight="700" font-size="28">19,847</text>
  <text x="280" y="200" fill="#43b649" font-family="system-ui" font-size="11">+2,140 this week</text>

  <rect x="500" y="110" width="220" height="110" rx="10" fill="white" stroke="#e4e8ec" stroke-width="1"/>
  <text x="520" y="140" fill="#888" font-family="system-ui" font-size="11">DELIVERY RATE</text>
  <text x="520" y="175" fill="#1a2332" font-family="system-ui" font-weight="700" font-size="28">98.7%</text>
  <text x="520" y="200" fill="#43b649" font-family="system-ui" font-size="11">Excellent health</text>

  <rect x="740" y="110" width="220" height="110" rx="10" fill="white" stroke="#e4e8ec" stroke-width="1"/>
  <text x="760" y="140" fill="#888" font-family="system-ui" font-size="11">OPEN RATE</text>
  <text x="760" y="175" fill="#1a2332" font-family="system-ui" font-weight="700" font-size="28">61.3%</text>
  <text x="760" y="200" fill="#43b649" font-family="system-ui" font-size="11">+4.2% vs last month</text>

  <rect x="980" y="110" width="220" height="110" rx="10" fill="white" stroke="#e4e8ec" stroke-width="1"/>
  <text x="1000" y="140" fill="#888" font-family="system-ui" font-size="11">REPLY RATE</text>
  <text x="1000" y="175" fill="#1a2332" font-family="system-ui" font-weight="700" font-size="28">12.8%</text>
  <text x="1000" y="200" fill="#43b649" font-family="system-ui" font-size="11">+1.1% vs last month</text>

  <!-- Deliverability panel -->
  <rect x="260" y="245" width="540" height="170" rx="10" fill="white" stroke="#e4e8ec" stroke-width="1"/>
  <text x="285" y="280" fill="#1a2332" font-family="system-ui" font-weight="600" font-size="14">Deliverability Health</text>

  <text x="285" y="315" fill="#666" font-family="system-ui" font-size="12">Domain Reputation</text>
  <rect x="460" y="304" width="320" height="14" rx="7" fill="#e8ecf0"/>
  <rect x="460" y="304" width="300" height="14" rx="7" fill="#43b649"/>
  <text x="770" y="315" fill="#43b649" font-family="system-ui" font-weight="600" font-size="11">94%</text>

  <text x="285" y="345" fill="#666" font-family="system-ui" font-size="12">Warm-Up Score</text>
  <rect x="460" y="334" width="320" height="14" rx="7" fill="#e8ecf0"/>
  <rect x="460" y="334" width="280" height="14" rx="7" fill="#43b649"/>
  <text x="750" y="345" fill="#43b649" font-family="system-ui" font-weight="600" font-size="11">88%</text>

  <text x="285" y="375" fill="#666" font-family="system-ui" font-size="12">SPF/DKIM/DMARC</text>
  <rect x="460" y="364" width="320" height="14" rx="7" fill="#e8ecf0"/>
  <rect x="460" y="364" width="320" height="14" rx="7" fill="#43b649"/>
  <text x="788" y="375" fill="#43b649" font-family="system-ui" font-weight="600" font-size="11">100%</text>

  <text x="285" y="405" fill="#666" font-family="system-ui" font-size="12">Bounce Rate</text>
  <rect x="460" y="394" width="320" height="14" rx="7" fill="#e8ecf0"/>
  <rect x="460" y="394" width="20" height="14" rx="7" fill="#43b649"/>
  <text x="490" y="405" fill="#43b649" font-family="system-ui" font-weight="600" font-size="11">1.3%</text>

  <!-- Warm-up status -->
  <rect x="820" y="245" width="540" height="170" rx="10" fill="white" stroke="#e4e8ec" stroke-width="1"/>
  <text x="845" y="280" fill="#1a2332" font-family="system-ui" font-weight="600" font-size="14">Email Accounts (Inbox Rotation)</text>

  <rect x="845" y="300" width="490" height="32" rx="4" fill="#f0fdf0"/>
  <text x="865" y="321" fill="#1a2332" font-family="system-ui" font-size="12">nicolas@company.com</text>
  <text x="1160" y="321" fill="#43b649" font-family="system-ui" font-size="11">Warmed up</text>
  <rect x="1260" y="307" width="55" height="18" rx="9" fill="#d4edda"/>
  <text x="1272" y="320" fill="#28a745" font-family="system-ui" font-size="10">Active</text>

  <rect x="845" y="340" width="490" height="32" rx="4" fill="#f0fdf0"/>
  <text x="865" y="361" fill="#1a2332" font-family="system-ui" font-size="12">outreach@company.com</text>
  <text x="1160" y="361" fill="#43b649" font-family="system-ui" font-size="11">Warmed up</text>
  <rect x="1260" y="347" width="55" height="18" rx="9" fill="#d4edda"/>
  <text x="1272" y="360" fill="#28a745" font-family="system-ui" font-size="10">Active</text>

  <rect x="845" y="380" width="490" height="32" rx="4" fill="#fffbf0"/>
  <text x="865" y="401" fill="#1a2332" font-family="system-ui" font-size="12">sales@company.com</text>
  <text x="1150" y="401" fill="#d97706" font-family="system-ui" font-size="11">Warming up</text>
  <rect x="1260" y="387" width="55" height="18" rx="9" fill="#fff3cd"/>
  <text x="1275" y="400" fill="#856404" font-family="system-ui" font-size="10">78%</text>

  <!-- Campaign table -->
  <rect x="260" y="440" width="1100" height="340" rx="10" fill="white" stroke="#e4e8ec" stroke-width="1"/>
  <text x="285" y="475" fill="#1a2332" font-family="system-ui" font-weight="600" font-size="16">Active Campaigns</text>

  <rect x="260" y="490" width="1100" height="36" fill="#f6f8fa"/>
  <text x="285" y="513" fill="#888" font-family="system-ui" font-weight="500" font-size="11">CAMPAIGN</text>
  <text x="540" y="513" fill="#888" font-family="system-ui" font-weight="500" font-size="11">STEPS</text>
  <text x="630" y="513" fill="#888" font-family="system-ui" font-weight="500" font-size="11">PROSPECTS</text>
  <text x="750" y="513" fill="#888" font-family="system-ui" font-weight="500" font-size="11">SENT</text>
  <text x="850" y="513" fill="#888" font-family="system-ui" font-weight="500" font-size="11">OPENED</text>
  <text x="950" y="513" fill="#888" font-family="system-ui" font-weight="500" font-size="11">REPLIED</text>
  <text x="1060" y="513" fill="#888" font-family="system-ui" font-weight="500" font-size="11">BOUNCED</text>
  <text x="1180" y="513" fill="#888" font-family="system-ui" font-weight="500" font-size="11">STATUS</text>

  <text x="285" y="555" fill="#1a2332" font-family="system-ui" font-size="13">SaaS Decision Makers</text>
  <text x="540" y="555" fill="#1a2332" font-family="system-ui" font-size="13">5</text>
  <text x="630" y="555" fill="#1a2332" font-family="system-ui" font-size="13">4,200</text>
  <text x="750" y="555" fill="#1a2332" font-family="system-ui" font-size="13">8,650</text>
  <text x="850" y="555" fill="#1a2332" font-family="system-ui" font-size="13">5,300</text>
  <text x="950" y="555" fill="#1a2332" font-family="system-ui" font-size="13">540</text>
  <text x="1060" y="555" fill="#1a2332" font-family="system-ui" font-size="13">52</text>
  <rect x="1175" y="541" width="55" height="22" rx="11" fill="#d4edda"/>
  <text x="1185" y="556" fill="#28a745" font-family="system-ui" font-size="11">Active</text>
  <line x1="260" y1="573" x2="1360" y2="573" stroke="#f0f2f5" stroke-width="1"/>

  <text x="285" y="600" fill="#1a2332" font-family="system-ui" font-size="13">Agency Cold Outreach</text>
  <text x="540" y="600" fill="#1a2332" font-family="system-ui" font-size="13">4</text>
  <text x="630" y="600" fill="#1a2332" font-family="system-ui" font-size="13">3,800</text>
  <text x="750" y="600" fill="#1a2332" font-family="system-ui" font-size="13">5,200</text>
  <text x="850" y="600" fill="#1a2332" font-family="system-ui" font-size="13">3,224</text>
  <text x="950" y="600" fill="#1a2332" font-family="system-ui" font-size="13">410</text>
  <text x="1060" y="600" fill="#1a2332" font-family="system-ui" font-size="13">28</text>
  <rect x="1175" y="586" width="55" height="22" rx="11" fill="#d4edda"/>
  <text x="1185" y="601" fill="#28a745" font-family="system-ui" font-size="11">Active</text>
  <line x1="260" y1="618" x2="1360" y2="618" stroke="#f0f2f5" stroke-width="1"/>

  <text x="285" y="645" fill="#1a2332" font-family="system-ui" font-size="13">E-commerce Follow Up</text>
  <text x="540" y="645" fill="#1a2332" font-family="system-ui" font-size="13">6</text>
  <text x="630" y="645" fill="#1a2332" font-family="system-ui" font-size="13">5,600</text>
  <text x="750" y="645" fill="#1a2332" font-family="system-ui" font-size="13">3,997</text>
  <text x="850" y="645" fill="#1a2332" font-family="system-ui" font-size="13">2,478</text>
  <text x="950" y="645" fill="#1a2332" font-family="system-ui" font-size="13">318</text>
  <text x="1060" y="645" fill="#1a2332" font-family="system-ui" font-size="13">41</text>
  <rect x="1175" y="631" width="60" height="22" rx="11" fill="#fff3cd"/>
  <text x="1183" y="646" fill="#856404" font-family="system-ui" font-size="11">Paused</text>

  <text x="285" y="690" fill="#1a2332" font-family="system-ui" font-size="13">Re-Engagement Sequence</text>
  <text x="540" y="690" fill="#1a2332" font-family="system-ui" font-size="13">3</text>
  <text x="630" y="690" fill="#1a2332" font-family="system-ui" font-size="13">2,247</text>
  <text x="750" y="690" fill="#1a2332" font-family="system-ui" font-size="13">2,000</text>
  <text x="850" y="690" fill="#1a2332" font-family="system-ui" font-size="13">1,260</text>
  <text x="950" y="690" fill="#1a2332" font-family="system-ui" font-size="13">189</text>
  <text x="1060" y="690" fill="#1a2332" font-family="system-ui" font-size="13">15</text>
  <rect x="1175" y="676" width="55" height="22" rx="11" fill="#d4edda"/>
  <text x="1185" y="691" fill="#28a745" font-family="system-ui" font-size="11">Active</text>
</svg>